{
  "accessors": [
    {
      "bufferView": 2,
      "componentType": 5126,
      "count": 4565,
      "max": [
        1.0,
        0.8244040012359619,
        0.5375469923019409
      ],
      "min": [
        -1.0,
        -0.8244040012359619,
        -0.5375469923019409
      ],
      "type": "VEC3"
    },
    {
      "bufferView": 2,
      "byteOffset": 54780,
      "componentType": 5126,
      "count": 4565,
      "max": [
        1.0,
        1.0,
        1.0
      ],
      "min": [
        -1.0,
        -1.0,
        -1.0
      ],
      "type": "VEC3"
    },
    {
      "bufferView": 3,
      "componentType": 5126,
      "count": 4565,
      "max": [
        1.0,
        0.9999979734420776,
        1.0,
        1.0
      ],
      "min": [
        -0.9999139904975891,
        -0.9992889761924744,
        -1.0,
        -1.0
      ],
      "type": "VEC4"
    },
    {
      "bufferView": 1,
      "componentType": 5126,
      "count": 4565,
      "max": [
        0.9980080127716064,
        0.9946709871292114
      ],
      "min": [
        0.0019920500926673412,
        0.001967119984328747
      ],
      "type": "VEC2"
    },
    {
      "bufferView": 0,
      "componentType": 5125,
      "count": 14568,
      "type": "SCALAR"
    }
  ],
  "asset": {
    "extras": {
      "author": "Amanda Alavi (https://sketchfab.com/Amanda.Alavi)",
      "license": "CC-BY-NC-ND-4.0 (http://creativecommons.org/licenses/by-nc-nd/4.0/)",
      "source": "https://sketchfab.com/3d-models/treasure-chest-0b8cbed26343414ab9f28ba6b5f023de",
      "title": "Treasure Chest"
    },
    "generator": "Sketchfab-12.67.0",
    "version": "2.0"
  },
  "bufferViews": [
    {
      "buffer": 0,
      "byteLength": 58272,
      "name": "floatBufferViews",
      "target": 34963
    },
    {
      "buffer": 0,
      "byteLength": 36520,
      "byteOffset": 58272,
      "byteStride": 8,
      "name": "floatBufferViews",
      "target": 34962
    },
    {
      "buffer": 0,
      "byteLength": 109560,
      "byteOffset": 94792,
      "byteStride": 12,
      "name": "floatBufferViews",
      "target": 34962
    },
    {
      "buffer": 0,
      "byteLength": 73040,
      "byteOffset": 204352,
      "byteStride": 16,
      "name": "floatBufferViews",
      "target": 34962
    }
  ],
  "buffers": [
    {
      "byteLength": 277392,
      "uri": "scene.bin"
    }
  ],
  "images": [
    {
      "uri": "textures/lambert1_baseColor.jpeg"
    },
    {
      "uri": "textures/lambert1_metallicRoughness.png"
    },
    {
      "uri": "textures/lambert1_normal.png"
    }
  ],
  "materials": [
    {
      "doubleSided": true,
      "name": "lambert1",
      "normalTexture": {
        "index": 2
      },
      "occlusionTexture": {
        "index": 1
      },
      "pbrMetallicRoughness": {
        "baseColorTexture": {
          "index": 0
        },
        "metallicRoughnessTexture": {
          "index": 1
        }
      }
    }
  ],
  "meshes": [
    {
      "name": "defaultMaterial",
      "primitives": [
        {
          "attributes": {
            "NORMAL": 1,
            "POSITION": 0,
            "TANGENT": 2,
            "TEXCOORD_0": 3
          },
          "indices": 4,
          "material": 0,
          "mode": 4
        }
      ]
    }
  ],
  "nodes": [
    {
      "children": [
        1
      ],
      "matrix": [
        0.4677616357803345,
        0.0,
        0.0,
        0.0,
        0.0,
        1.0386394761593076e-16,
        -0.4677616357803345,
        0.0,
        0.0,
        0.4677616357803345,
        1.0386394761593076e-16,
        0.0,
        0.0,
        0.0,
        0.0,
        1.0
      ],
      "name": "Sketchfab_model"
    },
    {
      "children": [
        2
      ],
      "matrix": [
        1.0,
        0.0,
        0.0,
        0.0,
        0.0,
        -4.371139006309477e-08,
        0.999999999999999,
        0.0,
        0.0,
        -0.999999999999999,
        -4.371139006309477e-08,
        0.0,
        0.0,
        0.0,
        0.0,
        1.0
      ],
      "name": "Collada visual scene group"
    },
    {
      "children": [
        3
      ],
      "name": "Chest_Gold1"
    },
    {
      "mesh": 0,
      "name": "defaultMaterial"
    }
  ],
  "samplers": [
    {
      "magFilter": 9729,
      "minFilter": 9987,
      "wrapS": 10497,
      "wrapT": 10497
    }
  ],
  "scene": 0,
  "scenes": [
    {
      "name": "Sketchfab_Scene",
      "nodes": [
        0
      ]
    }
  ],
  "textures": [
    {
      "sampler": 0,
      "source": 0
    },
    {
      "sampler": 0,
      "source": 1
    },
    {
      "sampler": 0,
      "source": 2
    }
  ]
}
